<svg width="1000" height="1000" viewBox="0 0 1000 1000" fill="none" xmlns="http://www.w3.org/2000/svg">
<path d="M0 16C0 7.16342 7.16344 0 16 0H100V1000H16C7.16345 1000 0 992.837 0 984V16Z" fill="#8C40EC"/>
<path d="M100 900H384C392.837 900 400 907.163 400 916V984C400 992.837 392.837 1000 384 1000H100L100 900Z" fill="#8C40EC"/>
<path d="M100 0L384 0C392.837 0 400 7.16344 400 16V84C400 92.8366 392.837 100 384 100L100 100L100 0Z" fill="#8C40EC"/>
<path d="M600 916C600 907.163 607.163 900 616 900H900V1000H616C607.163 1000 600 992.837 600 984V916Z" fill="#8C40EC"/>
<path d="M600 16C600 7.16345 607.163 0 616 0L900 0V100L616 100C607.163 100 600 92.8366 600 84V16Z" fill="#8C40EC"/>
<path d="M900 0H984C992.837 0 1000 7.16345 1000 16V984C1000 992.837 992.837 1000 984 1000H900V0Z" fill="#8C40EC"/>
<rect x="200" y="700.212" width="707.374" height="141" transform="rotate(-45 200 700.212)" fill="#82AAFF"/>
<rect x="700" y="200" width="100" height="100" fill="#82AAFF"/>
<rect x="200" y="700" width="100" height="100" fill="#82AAFF"/>
</svg>
