<svg width="1336" height="1321" viewBox="0 0 1336 1321" fill="none" xmlns="http://www.w3.org/2000/svg">
<g filter="url(#filter0_d)">
<path d="M68 116C68 80.6538 96.6538 52 132 52H268V1252H100C82.3269 1252 68 1237.67 68 1220V116Z" fill="url(#paint0_linear)"/>
<path d="M268 1052H536C553.673 1052 568 1066.33 568 1084V1220C568 1237.67 553.673 1252 536 1252H268V1052Z" fill="url(#paint1_linear)"/>
<path d="M268 52H536C553.673 52 568 66.3269 568 84V220C568 237.673 553.673 252 536 252H268V52Z" fill="url(#paint2_linear)"/>
<path d="M768 1084C768 1066.33 782.327 1052 800 1052H1068V1252H800C782.327 1252 768 1237.67 768 1220V1084Z" fill="url(#paint3_linear)"/>
<path d="M768 84C768 66.3269 782.327 52 800 52H1068V252H800C782.327 252 768 237.673 768 220V84Z" fill="url(#paint4_linear)"/>
<path d="M1068 52H1236C1253.67 52 1268 66.3269 1268 84V1220C1268 1237.67 1253.67 1252 1236 1252H1068V52Z" fill="url(#paint5_linear)"/>
</g>
<g filter="url(#filter1_d)">
<path d="M371.536 855.747C369.583 853.795 369.583 850.629 371.536 848.676L864.654 355.558C866.606 353.605 869.772 353.605 871.725 355.558L964.356 448.189C966.308 450.142 966.308 453.307 964.356 455.26L471.238 948.378C469.285 950.331 466.119 950.331 464.167 948.378L371.536 855.747Z" fill="url(#paint6_linear)"/>
<path d="M368 857C368 854.239 370.239 852 373 852H463C465.761 852 468 854.239 468 857V947C468 949.761 465.761 952 463 952H373C370.239 952 368 949.761 368 947V857Z" fill="url(#paint7_linear)"/>
</g>
<rect x="539.482" y="883.127" width="50" height="143.647" transform="rotate(135 539.482 883.127)" fill="#99959B"/>
<defs>
<filter id="filter0_d" x="18" y="6" width="1300" height="1300" filterUnits="userSpaceOnUse" color-interpolation-filters="sRGB">
<feFlood flood-opacity="0" result="BackgroundImageFix"/>
<feColorMatrix in="SourceAlpha" type="matrix" values="0 0 0 0 0 0 0 0 0 0 0 0 0 0 0 0 0 0 127 0"/>
<feOffset dy="4"/>
<feGaussianBlur stdDeviation="25"/>
<feColorMatrix type="matrix" values="0 0 0 0 0 0 0 0 0 0 0 0 0 0 0 0 0 0 0.5 0"/>
<feBlend mode="normal" in2="BackgroundImageFix" result="effect1_dropShadow"/>
<feBlend mode="normal" in="SourceGraphic" in2="effect1_dropShadow" result="shape"/>
</filter>
<filter id="filter1_d" x="318" y="308.094" width="697.82" height="697.906" filterUnits="userSpaceOnUse" color-interpolation-filters="sRGB">
<feFlood flood-opacity="0" result="BackgroundImageFix"/>
<feColorMatrix in="SourceAlpha" type="matrix" values="0 0 0 0 0 0 0 0 0 0 0 0 0 0 0 0 0 0 127 0"/>
<feOffset dy="4"/>
<feGaussianBlur stdDeviation="25"/>
<feColorMatrix type="matrix" values="0 0 0 0 0 0 0 0 0 0 0 0 0 0 0 0 0 0 0.5 0"/>
<feBlend mode="normal" in2="BackgroundImageFix" result="effect1_dropShadow"/>
<feBlend mode="normal" in="SourceGraphic" in2="effect1_dropShadow" result="shape"/>
</filter>
<linearGradient id="paint0_linear" x1="68" y1="52" x2="1268" y2="1252" gradientUnits="userSpaceOnUse">
<stop stop-color="#0F74D1"/>
<stop offset="0.757722" stop-color="#8C40EC"/>
</linearGradient>
<linearGradient id="paint1_linear" x1="68" y1="52" x2="1268" y2="1252" gradientUnits="userSpaceOnUse">
<stop stop-color="#0F74D1"/>
<stop offset="0.757722" stop-color="#8C40EC"/>
</linearGradient>
<linearGradient id="paint2_linear" x1="68" y1="52" x2="1268" y2="1252" gradientUnits="userSpaceOnUse">
<stop stop-color="#0F74D1"/>
<stop offset="0.757722" stop-color="#8C40EC"/>
</linearGradient>
<linearGradient id="paint3_linear" x1="68" y1="52" x2="1268" y2="1252" gradientUnits="userSpaceOnUse">
<stop stop-color="#0F74D1"/>
<stop offset="0.757722" stop-color="#8C40EC"/>
</linearGradient>
<linearGradient id="paint4_linear" x1="68" y1="52" x2="1268" y2="1252" gradientUnits="userSpaceOnUse">
<stop stop-color="#0F74D1"/>
<stop offset="0.757722" stop-color="#8C40EC"/>
</linearGradient>
<linearGradient id="paint5_linear" x1="68" y1="52" x2="1268" y2="1252" gradientUnits="userSpaceOnUse">
<stop stop-color="#0F74D1"/>
<stop offset="0.757722" stop-color="#8C40EC"/>
</linearGradient>
<linearGradient id="paint6_linear" x1="772.5" y1="896" x2="522.597" y2="624.072" gradientUnits="userSpaceOnUse">
<stop stop-color="#0F74D1"/>
<stop offset="1" stop-color="#8C40EC"/>
</linearGradient>
<linearGradient id="paint7_linear" x1="772.5" y1="896" x2="522.597" y2="624.072" gradientUnits="userSpaceOnUse">
<stop stop-color="#0F74D1"/>
<stop offset="1" stop-color="#8C40EC"/>
</linearGradient>
</defs>
</svg>
