<svg xmlns="http://www.w3.org/2000/svg" version="1.1" xmlns:xlink="http://www.w3.org/1999/xlink" xmlns:svgjs="http://svgjs.com/svgjs" width="1440" height="560" preserveAspectRatio="none" viewBox="0 0 1440 560"><g mask="url(&quot;#SvgjsMask1007&quot;)" fill="none"><rect width="1440" height="560" x="0" y="0" fill="rgba(2, 9, 16, 1)"></rect><path d="M645.755332976866 523.2129143190048L605.231528474145 381.8896131768305 463.9082273319707 422.4134176795515 504.43203183469177 563.7367188217258z" fill="rgba(28, 83, 142, 0.1)" class="triangle-float1"></path><path d="M254.13124613894198 505.42890213343327L314.1458554621261 561.3934307159603 368.0853436743247 443.38925243992054z" fill="rgba(28, 83, 142, 0.1)" class="triangle-float2"></path><path d="M1286.720569009703 578.95859117807L1230.7343592395246 458.59642926228014 1162.527230225176 552.4754884848744z" fill="rgba(28, 83, 142, 0.1)" class="triangle-float1"></path><path d="M1141.618,367.964C1187.016,368.716,1238.649,361.07,1259.63,320.804C1279.777,282.138,1250.415,240.18,1227.541,203.062C1206.316,168.621,1182.051,130.68,1141.618,129.305C1099.506,127.873,1066.447,160.619,1044.937,196.851C1022.859,234.04,1008.909,279.352,1030.184,317.006C1051.718,355.119,1097.848,367.239,1141.618,367.964" fill="rgba(28, 83, 142, 0.1)" class="triangle-float1"></path><path d="M566.8311705041227 52.91902389064839L561.8647531515052-18.10405316067778 457.8133462508247 24.85711139391163z" fill="rgba(28, 83, 142, 0.1)" class="triangle-float3"></path><path d="M1119.9117631205042 451.7303165209757L1210.0579765821312 386.23525870245436 1066.7422831235358 283.76346741927466z" fill="rgba(28, 83, 142, 0.1)" class="triangle-float1"></path><path d="M1248.2938431968007 385.42982594949746L1276.0619208932796 496.80150253547714 1387.4335974792593 469.03342483899814 1359.6655197827804 357.6617482530185z" fill="rgba(28, 83, 142, 0.1)" class="triangle-float3"></path><path d="M335.5725225631288 520.3441868807722L490.66135301019506 583.0041417154889 398.2324773978455 365.25535643370597z" fill="rgba(28, 83, 142, 0.1)" class="triangle-float3"></path><path d="M142.48832643465556-14.289835828020273L21.405405328003837-46.733906755748954 110.04425550692687 106.79308527863145z" fill="rgba(28, 83, 142, 0.1)" class="triangle-float2"></path><path d="M238.736,316.652C281.935,317.401,323.533,296.996,345.453,259.764C367.682,222.007,366.486,174.987,344.427,137.131C322.521,99.538,282.154,79.448,238.736,76.623C188.835,73.377,130.626,77.996,106.202,121.632C82.069,164.749,110.466,215.306,138.239,256.173C161.792,290.831,196.838,315.926,238.736,316.652" fill="rgba(28, 83, 142, 0.1)" class="triangle-float2"></path><path d="M1281.547,16.617C1297.48,16.771,1313.086,10.636,1321.72,-2.756C1331.121,-17.338,1333.663,-36.008,1325.265,-51.19C1316.625,-66.809,1299.397,-75.336,1281.547,-75.379C1263.619,-75.422,1245.991,-67.172,1237.465,-51.401C1229.281,-36.263,1233.342,-17.962,1242.701,-3.522C1251.203,9.597,1265.915,16.466,1281.547,16.617" fill="rgba(28, 83, 142, 0.1)" class="triangle-float1"></path><path d="M428.832,357.565C473.586,359.216,524.018,355.048,547.387,316.845C571.43,277.541,557.587,227.158,532.073,188.792C509.36,154.639,469.827,137.269,428.832,138.575C390.154,139.807,356.622,162.038,336.387,195.024C315.05,229.807,304.345,273.153,324.519,308.623C344.871,344.406,387.694,356.047,428.832,357.565" fill="rgba(28, 83, 142, 0.1)" class="triangle-float1"></path><path d="M1211.8738637393337 396.3024903266248L1255.9013717385503 500.02479920790313 1359.6236806198285 455.99729120868653 1315.596172620612 352.2749823274082z" fill="rgba(28, 83, 142, 0.1)" class="triangle-float1"></path><path d="M461.888,353.489C497.752,353.793,535.386,340.817,551.856,308.957C567.423,278.844,551.906,244.091,532.981,215.967C516.641,191.684,491.118,176.759,461.888,175.255C429.394,173.583,394.821,180.79,376.882,207.935C357.273,237.606,356.583,276.744,374.519,307.455C392.312,337.921,426.608,353.19,461.888,353.489" fill="rgba(28, 83, 142, 0.1)" class="triangle-float2"></path><path d="M416.238,271.279C461.721,271.723,511.937,266.78,536.046,228.21C561.217,187.94,550.109,136.584,526.008,95.664C502.318,55.442,462.887,26.492,416.238,24.793C366.511,22.982,316.517,44.007,291.684,87.128C266.891,130.179,272.583,184.758,300.416,225.909C325.314,262.721,371.799,270.845,416.238,271.279" fill="rgba(28, 83, 142, 0.1)" class="triangle-float2"></path><path d="M300.254,722.965C351.185,723.605,407.51,711.212,430.941,665.986C453.29,622.849,425.243,574.34,398.148,534.014C375.003,499.567,341.739,472.651,300.254,471.482C256.706,470.255,216.161,491.756,192.314,528.214C165.785,568.772,151.637,620.384,175.131,662.773C199.178,706.161,250.652,722.342,300.254,722.965" fill="rgba(28, 83, 142, 0.1)" class="triangle-float2"></path><path d="M193.0350680662085 399.05236907131564L216.92174995722434 320.9225530611887 87.78368499652603 324.1574382297284z" fill="rgba(28, 83, 142, 0.1)" class="triangle-float3"></path></g><defs><mask id="SvgjsMask1007"><rect width="1440" height="560" fill="#ffffff"></rect></mask><style>
            @keyframes float1 {
                0%{transform: translate(0, 0)}
                50%{transform: translate(-10px, 0)}
                100%{transform: translate(0, 0)}
            }

            .triangle-float1 {
                animation: float1 5s infinite;
            }

            @keyframes float2 {
                0%{transform: translate(0, 0)}
                50%{transform: translate(-5px, -5px)}
                100%{transform: translate(0, 0)}
            }

            .triangle-float2 {
                animation: float2 4s infinite;
            }

            @keyframes float3 {
                0%{transform: translate(0, 0)}
                50%{transform: translate(0, -10px)}
                100%{transform: translate(0, 0)}
            }

            .triangle-float3 {
                animation: float3 6s infinite;
            }
        </style></defs></svg>