<svg xmlns="http://www.w3.org/2000/svg" version="1.1" xmlns:xlink="http://www.w3.org/1999/xlink" xmlns:svgjs="http://svgjs.com/svgjs" width="1440" height="560" preserveAspectRatio="none" viewBox="0 0 1440 560"><g mask="url(&quot;#SvgjsMask1028&quot;)" fill="none"><rect width="1440" height="560" x="0" y="0" fill="#0e2a47"></rect><path d="M608.0534123883772 161.05757891017134L549.4011657533115 35.27743009783954 482.2732635760454 219.70982554523704z" fill="rgba(28, 83, 142, 0.4)" class="triangle-float2"></path><path d="M1023.4233019156711 100.41538143811431L941.3411280069295 140.4495325937381 1063.4574530712948 182.49755534685596z" fill="rgba(28, 83, 142, 0.4)" class="triangle-float3"></path><path d="M58.395647060720066 569.9788754002268L115.12125425085625 614.2977769527463 153.23680298456745 507.0499153912823z" fill="rgba(28, 83, 142, 0.4)" class="triangle-float1"></path><path d="M1335.210238323948 120.72090962060425L1280.410035731501 233.0779755152219 1392.7671016261188 287.8781781076688 1447.5673042185656 175.5211122130512z" fill="rgba(28, 83, 142, 0.4)" class="triangle-float3"></path><path d="M435.894,669.635C492.091,673.188,554.161,659.452,581.994,610.503C609.618,561.921,588.1,502.695,557.35,456.03C530.06,414.615,485.492,388.578,435.894,388.789C386.669,388.998,340.648,414.323,316.213,457.055C291.95,499.488,294.658,551.257,318.638,593.851C343.108,637.315,386.114,666.487,435.894,669.635" fill="rgba(28, 83, 142, 0.4)" class="triangle-float2"></path><path d="M1053.149752398701 318.90127646928363L1187.0522492523473 225.14173878725845 959.3902147166757 184.9987796156373z" fill="rgba(28, 83, 142, 0.4)" class="triangle-float1"></path><path d="M-11.332523708472799 180.58290993256787L134.78643586743019 170.50520304608187 65.05391286062829 63.126534029513266z" fill="rgba(28, 83, 142, 0.4)" class="triangle-float1"></path><path d="M1110.6923077618258 165.56857610883526L1019.7281693209536 86.49465694530586 1031.6183885982964 256.5327145497074z" fill="rgba(28, 83, 142, 0.4)" class="triangle-float3"></path><path d="M274.2383454093969 257.81512235773334L296.6048466000762 130.9683907865761 169.75811502891895 108.60188959589678 147.39161383823966 235.44862116705406z" fill="rgba(28, 83, 142, 0.4)" class="triangle-float2"></path><path d="M777.0136320726025 462.6885530637487L752.8498431583077 546.957699541383 891.3354573319065 541.068809674008z" fill="rgba(28, 83, 142, 0.4)" class="triangle-float3"></path><path d="M230.58584934134188 516.4437407769611L339.46423963121254 524.057259499473 296.44532257004505 356.93291470341114z" fill="rgba(28, 83, 142, 0.4)" class="triangle-float2"></path><path d="M957.8316813107141 120.69758440644286L1082.8061264044425 39.538230806930244 1001.6467728049299-85.4362142867982 876.6723277112014-4.276860687285591z" fill="rgba(28, 83, 142, 0.4)" class="triangle-float1"></path><path d="M1095.0611441213441 356.5087736980315L1059.738334866001 448.26636728074317 1144.8505187970395 436.3046299077315z" fill="rgba(28, 83, 142, 0.4)" class="triangle-float1"></path><path d="M100.5906565306963 28.681726883669718L77.18532058884179 130.06137484532834 178.5649685505004 153.46671078718285 201.9703044923549 52.08706282552423z" fill="rgba(28, 83, 142, 0.4)" class="triangle-float3"></path><path d="M166.10371948709613 453.7075430562451L254.63686776955666 423.22313541112544 135.61931184197647 365.17439477378457z" fill="rgba(28, 83, 142, 0.4)" class="triangle-float2"></path><path d="M1061.5211152148524 213.38401324821524L976.4448488943474 344.38997500731955 1192.5270769739568 298.46027956872024z" fill="rgba(28, 83, 142, 0.4)" class="triangle-float1"></path><path d="M139.8917357820094-63.26245623075562L90.24534563087892 10.341344034865756 163.8491458965003 59.98773418599623 213.49553604763076-13.616066079625135z" fill="rgba(28, 83, 142, 0.4)" class="triangle-float2"></path></g><defs><mask id="SvgjsMask1028"><rect width="1440" height="560" fill="#ffffff"></rect></mask><style>
            @keyframes float1 {
                0%{transform: translate(0, 0)}
                50%{transform: translate(-10px, 0)}
                100%{transform: translate(0, 0)}
            }

            .triangle-float1 {
                animation: float1 5s infinite;
            }

            @keyframes float2 {
                0%{transform: translate(0, 0)}
                50%{transform: translate(-5px, -5px)}
                100%{transform: translate(0, 0)}
            }

            .triangle-float2 {
                animation: float2 4s infinite;
            }

            @keyframes float3 {
                0%{transform: translate(0, 0)}
                50%{transform: translate(0, -10px)}
                100%{transform: translate(0, 0)}
            }

            .triangle-float3 {
                animation: float3 6s infinite;
            }
        </style></defs></svg>